<?xml version="1.0" standalone="no"?>
<!DOCTYPE svg PUBLIC "-//W3C//DTD SVG 20010904//EN"
 "http://www.w3.org/TR/2001/REC-SVG-20010904/DTD/svg10.dtd">
<svg version="1.0" xmlns="http://www.w3.org/2000/svg"
 width="988.000000pt" height="988.000000pt" viewBox="0 0 988.000000 988.000000"
 preserveAspectRatio="xMidYMid meet">
<metadata>
Created by potrace 1.14, written by Peter Selinger 2001-2017
</metadata>
<g transform="translate(0.000000,988.000000) scale(0.100000,-0.100000)"
fill="#000000" stroke="none">
<path d="M4026 6642 c-4 -3 -6 -299 -6 -658 l0 -653 158 -50 c339 -107 672
-211 677 -211 3 0 5 296 5 658 l0 657 -278 88 c-152 48 -339 107 -414 131 -75
24 -139 41 -142 38z"/>
<path d="M5320 6517 l-415 -133 -3 -657 c-1 -361 1 -657 5 -657 5 -1 194 57
420 127 l413 128 0 663 c0 364 -1 662 -2 662 -2 -1 -190 -61 -418 -133z"/>
<path d="M3892 5860 l0 -620 22 -5 c68 -17 555 -100 549 -94 -5 4 -105 37
-223 73 -118 37 -225 71 -237 76 l-23 10 0 590 0 590 -44 0 -44 0 0 -620z"/>
<path d="M5780 5890 l0 -590 -22 -10 c-13 -5 -120 -39 -238 -76 -118 -37 -219
-70 -223 -74 -5 -4 38 1 95 11 57 10 186 34 288 52 l185 33 3 622 2 622 -45 0
-45 0 0 -590z"/>
<path d="M3770 5716 l0 -565 33 -5 c17 -3 124 -12 237 -21 113 -8 232 -18 265
-22 113 -11 49 6 -175 47 -124 22 -236 44 -250 49 l-25 8 -5 534 -5 534 -37 3
-38 3 0 -565z"/>
<path d="M5917 6274 c-4 -4 -7 -246 -7 -539 l0 -531 -237 -44 c-230 -41 -330
-65 -233 -55 25 3 135 12 245 20 110 8 226 18 258 21 l57 6 -2 561 -3 562 -35
3 c-20 2 -39 0 -43 -4z"/>
<path d="M3317 4024 c-4 -4 -7 -213 -7 -464 0 -341 3 -459 12 -468 19 -19 397
-16 473 4 112 29 198 96 241 188 23 49 24 61 24 267 0 171 -3 225 -16 262 -23
67 -95 139 -179 179 l-70 33 -235 3 c-129 2 -238 0 -243 -4z m441 -228 c61
-32 67 -52 67 -236 0 -137 -3 -170 -17 -196 -26 -47 -71 -64 -175 -64 l-88 0
2 253 c1 138 2 256 2 261 2 15 174 0 209 -18z"/>
<path d="M4210 4011 c-13 -25 -13 -131 0 -165 9 -24 15 -26 65 -26 l55 0 0
-265 0 -265 -53 0 c-29 0 -58 -5 -65 -12 -16 -16 -16 -170 0 -186 17 -17 459
-17 476 0 13 13 17 153 6 182 -5 12 -21 16 -65 16 l-59 0 0 265 0 265 55 0
c67 0 70 5 70 105 0 114 20 105 -244 105 -217 0 -231 -1 -241 -19z"/>
<path d="M4877 4024 c-4 -4 -7 -213 -7 -464 0 -341 3 -459 12 -468 8 -8 46
-12 103 -12 57 0 95 4 103 12 8 8 12 56 12 148 l0 136 43 42 42 42 104 -176
c57 -96 114 -182 126 -190 17 -11 49 -14 131 -12 l109 3 3 28 c3 21 -32 85
-144 270 -81 133 -148 245 -150 248 -2 4 68 84 156 180 109 118 160 181 160
196 0 23 -2 23 -124 23 -68 0 -131 -3 -139 -6 -8 -3 -81 -79 -163 -170 l-149
-165 -5 168 -5 168 -106 3 c-58 1 -108 -1 -112 -4z"/>
<path d="M5807 4023 c-4 -3 -7 -212 -7 -463 0 -341 3 -459 12 -468 8 -8 46
-12 103 -12 57 0 95 4 103 12 9 9 12 104 12 365 l0 353 114 0 c101 0 117 -2
147 -23 93 -63 35 -187 -88 -187 -64 0 -68 -7 -68 -122 l1 -103 93 -138 c51
-75 101 -142 112 -147 11 -6 66 -9 126 -8 107 3 108 3 111 28 2 18 -24 64 -93
165 -52 76 -95 142 -95 146 0 4 13 12 30 19 37 15 92 75 121 132 17 31 24 66
27 128 5 116 -18 180 -93 248 -81 75 -119 82 -416 82 -135 0 -249 -3 -252 -7z"/>
</g>
</svg>
